<svg version="1.1" id="Layer_1" xmlns="http://www.w3.org/2000/svg" xmlns:xlink="http://www.w3.org/1999/xlink" x="0px" y="0px"
	 width="100%" viewBox="0 0 200 200" enable-background="new 0 0 200 200" xml:space="preserve">
<path fill="#FEFEFE" opacity="1.000000" stroke="none" 
	d="
M129.000000,201.000000 
	C86.000000,201.000000 43.500004,201.000000 1.000006,201.000000 
	C1.000004,134.333344 1.000004,67.666679 1.000002,1.000015 
	C67.666656,1.000010 134.333313,1.000010 200.999969,1.000005 
	C200.999985,67.666649 200.999985,134.333298 201.000000,200.999969 
	C177.166672,201.000000 153.333328,201.000000 129.000000,201.000000 
M109.553612,129.415878 
	C109.390343,120.591743 109.227074,111.767609 109.037483,102.312057 
	C109.034142,101.890762 109.030800,101.469460 109.519722,100.411285 
	C109.352440,96.931732 109.185158,93.452179 109.027565,89.039139 
	C109.028610,85.383675 108.950256,81.726112 109.046684,78.073166 
	C109.269592,69.628662 109.674919,61.187378 109.759544,52.742310 
	C109.774628,51.237053 108.602051,49.719891 107.137856,48.052818 
	C102.483551,47.364803 99.938156,48.812321 100.933067,54.855793 
	C100.991760,56.563961 101.050461,58.272129 101.046898,60.737946 
	C101.064026,61.496975 101.081161,62.256001 100.886292,63.878220 
	C101.080605,67.463020 101.274910,71.047829 101.431129,74.773613 
	C101.431129,74.773613 101.433372,75.025459 101.014198,75.844406 
	C100.986580,81.516960 100.958969,87.189522 100.514603,93.588211 
	C100.396935,104.695183 100.184608,115.802383 100.211700,126.909004 
	C100.221497,130.925049 100.804901,134.939682 100.809380,139.626785 
	C99.804375,142.649414 99.706657,145.308517 103.788857,145.787643 
	C107.724388,146.249588 109.484039,144.698135 109.028511,140.442932 
	C108.664803,137.045395 109.053680,133.567261 109.553612,129.415878 
M86.031067,73.083679 
	C86.331848,72.717529 86.632622,72.351372 87.553406,71.708382 
	C89.547272,69.306503 91.894470,67.099419 93.374763,64.414413 
	C94.040092,63.207603 93.603065,60.396954 92.594559,59.417294 
	C82.343262,49.459255 69.922585,46.516533 55.196648,48.709881 
	C34.482521,51.895912 19.674686,62.622574 13.320761,83.004936 
	C7.349700,102.159134 13.933169,122.263535 29.532520,134.549774 
	C47.560017,148.748474 68.018822,148.441757 88.130478,138.271637 
	C91.372772,136.632080 95.755302,133.850464 94.036942,130.147171 
	C91.834053,125.399658 87.768341,121.221840 83.658760,117.821693 
	C82.313202,116.708420 78.276871,118.631416 75.560326,119.458862 
	C73.350830,120.131866 71.325279,121.392288 69.130913,122.134155 
	C57.040943,126.221504 43.563313,120.437546 38.041058,108.866829 
	C32.445072,97.141624 36.856937,80.001778 46.648251,73.444420 
	C52.357861,69.620621 58.343491,68.248528 65.649551,68.961723 
	C66.100540,68.937653 66.551529,68.913582 67.605743,69.297249 
	C70.808449,71.017815 74.170212,72.501976 77.171707,74.521568 
	C80.566376,76.805710 83.250381,76.893173 86.031067,73.083679 
M174.286118,99.746681 
	C175.043823,98.654015 175.878113,97.606148 176.547287,96.461716 
	C182.793976,85.778358 185.114807,74.632927 178.706192,63.324917 
	C172.322571,52.060963 161.712830,47.968910 149.264587,48.008991 
	C139.679062,48.039856 130.094406,48.400032 120.509125,48.411167 
	C117.219833,48.414989 116.177498,49.687233 116.229240,52.879211 
	C116.377655,62.033169 116.278954,71.191116 116.279037,80.347496 
	C116.279213,99.659134 116.377708,118.971657 116.201370,138.281677 
	C116.164917,142.273880 117.416069,143.678787 121.370026,143.336029 
	C124.840088,143.035202 128.383240,142.999481 131.846420,143.336639 
	C136.691101,143.808289 138.221115,142.010559 138.025467,137.145905 
	C137.654129,127.912102 137.917953,118.652756 137.917953,109.145943 
	C143.877686,109.145943 149.215027,108.762955 154.475906,109.233871 
	C162.792297,109.978294 169.026321,106.832283 174.286118,99.746681 
z"/>
<path fill="#0B0B0B" opacity="1.000000" stroke="none" 
	d="
M64.988953,68.807907 
	C58.343491,68.248528 52.357861,69.620621 46.648251,73.444420 
	C36.856937,80.001778 32.445072,97.141624 38.041058,108.866829 
	C43.563313,120.437546 57.040943,126.221504 69.130913,122.134155 
	C71.325279,121.392288 73.350830,120.131866 75.560326,119.458862 
	C78.276871,118.631416 82.313202,116.708420 83.658760,117.821693 
	C87.768341,121.221840 91.834053,125.399658 94.036942,130.147171 
	C95.755302,133.850464 91.372772,136.632080 88.130478,138.271637 
	C68.018822,148.441757 47.560017,148.748474 29.532520,134.549774 
	C13.933169,122.263535 7.349700,102.159134 13.320761,83.004936 
	C19.674686,62.622574 34.482521,51.895912 55.441650,49.061039 
	C54.825912,51.031799 53.965176,52.651405 52.992798,54.615074 
	C51.771378,56.392239 50.946060,58.306866 49.495800,59.163624 
	C45.871552,61.304676 41.910801,62.865688 38.180195,64.839256 
	C29.604279,69.376076 24.730865,77.374107 22.239010,85.951385 
	C18.073811,100.288528 21.666100,119.421341 40.331177,130.371689 
	C52.114380,137.284622 64.413406,137.174850 76.900864,132.831573 
	C78.756264,132.186234 80.171013,130.273972 81.789627,128.947845 
	C81.431198,128.495392 81.072777,128.042938 80.714348,127.590485 
	C77.832550,128.742874 74.970001,129.946396 72.065903,131.039551 
	C50.349854,139.213882 24.458652,123.296425 24.131859,97.403458 
	C24.038942,90.041328 25.486027,83.127151 30.008793,77.472687 
	C35.374016,70.764946 40.142319,62.886410 50.427166,62.543152 
	C55.139320,62.385883 59.820515,61.234489 64.530815,61.111698 
	C67.585236,61.032074 66.621010,63.265919 65.482170,65.044617 
	C65.120247,66.335594 65.054596,67.571747 64.988953,68.807907 
z"/>
<path fill="#0C0C0C" opacity="1.000000" stroke="none" 
	d="
M174.074585,100.036423 
	C169.026321,106.832283 162.792297,109.978294 154.475906,109.233871 
	C149.215027,108.762955 143.877686,109.145943 137.917953,109.145943 
	C137.917953,118.652756 137.654129,127.912102 138.025467,137.145905 
	C138.221115,142.010559 136.691101,143.808289 131.846420,143.336639 
	C128.383240,142.999481 124.840088,143.035202 121.370026,143.336029 
	C117.416069,143.678787 116.164917,142.273880 116.201370,138.281677 
	C116.377708,118.971657 116.279213,99.659134 116.279037,80.347496 
	C116.278954,71.191116 116.377655,62.033169 116.229240,52.879211 
	C116.177498,49.687233 117.219833,48.414989 120.509125,48.411167 
	C130.094406,48.400032 139.679062,48.039856 149.264587,48.008991 
	C161.712830,47.968910 172.322571,52.060963 178.706192,63.324917 
	C185.114807,74.632927 182.793976,85.778358 176.547287,96.461716 
	C175.878113,97.606148 175.043823,98.654015 174.074585,100.036423 
M126.017029,72.513962 
	C125.975967,93.294113 126.154556,114.066971 126.631271,134.829941 
	C127.374199,134.825272 128.117126,134.820602 128.860046,134.815948 
	C128.860046,123.529915 128.860046,112.243896 128.860046,100.170952 
	C137.892746,100.170952 146.165344,100.191109 154.437622,100.149582 
	C155.702942,100.143234 157.084274,100.129005 158.213577,99.650375 
	C172.326065,93.668953 177.011398,78.123497 168.665710,65.243027 
	C166.389114,61.729393 163.385910,59.727230 159.125336,58.781315 
	C153.502792,57.533024 148.039825,56.118084 142.177338,56.733295 
	C138.652908,57.103149 134.986221,57.178810 131.505600,56.622517 
	C127.590759,55.996819 126.301285,57.948799 126.063629,61.058048 
	C125.798523,64.526512 126.012009,68.031555 126.017029,72.513962 
z"/>
<path fill="#121212" opacity="1.000000" stroke="none" 
	d="
M53.104439,54.271011 
	C53.965176,52.651405 54.825912,51.031799 55.866226,49.105774 
	C69.922585,46.516533 82.343262,49.459255 92.594559,59.417294 
	C93.603065,60.396954 94.040092,63.207603 93.374763,64.414413 
	C91.894470,67.099419 89.547272,69.306503 87.005829,71.680756 
	C85.848915,71.452232 85.239578,71.251335 84.630249,71.050430 
	C84.942108,71.783928 85.253960,72.517433 85.565811,73.250938 
	C83.250381,76.893173 80.566376,76.805710 77.171707,74.521568 
	C74.170212,72.501976 70.808449,71.017815 67.305099,68.755104 
	C67.003746,67.536400 67.003044,66.859840 67.375534,66.120529 
	C69.086960,66.327293 70.425194,66.596809 71.631714,66.839798 
	C71.313713,65.872452 71.019760,64.978287 71.035828,64.077209 
	C72.230690,63.744064 73.115540,63.417843 74.357025,63.110207 
	C75.696381,64.002014 76.679108,64.875237 77.326645,65.869919 
	C76.652008,66.314430 76.312553,66.637482 75.731155,66.971405 
	C75.489197,66.982262 75.004936,66.993607 74.948570,66.855988 
	C74.805367,66.669983 74.718536,66.621590 74.631699,66.573196 
	C74.752144,66.717262 74.872597,66.861328 75.007668,67.258789 
	C75.175995,67.785194 75.329697,68.058205 75.483406,68.331207 
	C75.671478,67.903496 75.859543,67.475777 76.331543,67.019859 
	C77.072083,66.694260 77.528679,66.396851 78.343307,66.149704 
	C79.804420,66.530289 80.907494,66.860611 82.107559,67.362915 
	C82.372475,67.747566 82.583916,67.899773 82.994461,68.327164 
	C85.686646,68.084465 85.686646,68.084465 84.633919,64.122856 
	C79.190086,65.553642 76.971695,60.215397 73.008766,58.564888 
	C72.330482,58.282391 71.886604,57.232510 71.235184,57.121964 
	C65.204018,56.098492 59.151066,55.203396 53.104439,54.271011 
M73.516899,51.412979 
	C73.516899,51.412979 73.582283,51.522900 73.516899,51.412979 
M72.586891,53.516872 
	C72.586891,53.516872 72.476959,53.582233 72.586891,53.516872 
z"/>
<path fill="#98CC56" opacity="1.000000" stroke="none" 
	d="
M109.027451,101.048164 
	C109.030800,101.469460 109.034142,101.890762 109.006393,103.045547 
	C108.901588,105.173759 108.827873,106.568481 108.336243,107.974594 
	C105.651169,107.979362 103.384003,107.972748 101.089897,107.502670 
	C101.019089,102.313499 100.975227,97.587784 100.931366,92.862076 
	C100.958969,87.189522 100.986580,81.516960 101.371140,75.763535 
	C103.664032,75.682671 105.599968,75.682671 107.920822,75.682671 
	C107.920822,70.686180 107.913422,66.007416 107.922981,61.328690 
	C107.931923,56.955185 107.958862,52.581711 107.977882,48.208225 
	C108.602051,49.719891 109.774628,51.237053 109.759544,52.742310 
	C109.674919,61.187378 109.269592,69.628662 109.046684,78.073166 
	C108.950256,81.726112 109.028610,85.383675 108.993095,89.882744 
	C108.981567,94.166954 109.004509,97.607559 109.027451,101.048164 
M104.222809,91.107216 
	C104.597794,91.696907 104.972778,92.286598 105.347771,92.876289 
	C105.748581,92.498779 106.149391,92.121262 106.550201,91.743752 
	C105.983925,91.503662 105.417656,91.263565 104.222809,91.107216 
M104.309662,97.609940 
	C104.719955,97.840393 105.130257,98.070847 105.540558,98.301292 
	C105.597862,97.533302 105.655167,96.765305 105.712463,95.997307 
	C105.308281,96.351280 104.904099,96.705246 104.309662,97.609940 
M103.405693,94.480873 
	C103.405693,94.480873 103.535004,94.400246 103.405693,94.480873 
z"/>
<path fill="#8CC642" opacity="1.000000" stroke="none" 
	d="
M107.557869,48.130524 
	C107.958862,52.581711 107.931923,56.955185 107.922981,61.328690 
	C107.913422,66.007416 107.920822,70.686180 107.920822,75.682671 
	C105.599968,75.682671 103.664032,75.682671 101.580734,75.354065 
	C101.433372,75.025459 101.431129,74.773613 101.615768,74.224113 
	C101.566376,70.121422 101.332329,66.568222 101.098282,63.015030 
	C101.081161,62.256001 101.064026,61.496975 101.328964,60.101604 
	C101.440941,57.648392 101.270851,55.831520 101.100769,54.014648 
	C99.938156,48.812321 102.483551,47.364803 107.557869,48.130524 
z"/>
<path fill="#A5CF70" opacity="1.000000" stroke="none" 
	d="
M100.722984,93.225143 
	C100.975227,97.587784 101.019089,102.313499 101.067917,107.847832 
	C101.094040,109.116081 101.115189,109.575714 101.103806,110.498413 
	C101.062111,115.355309 100.969978,119.752251 101.135849,124.139450 
	C101.159935,124.776329 102.419327,125.366493 103.439850,126.014656 
	C104.830360,126.349922 105.888123,126.648796 107.068924,127.236923 
	C108.756325,131.646988 106.309906,134.127350 103.555862,136.512970 
	C102.690384,137.262665 101.933258,138.137436 101.126556,138.954971 
	C100.804901,134.939682 100.221497,130.925049 100.211700,126.909004 
	C100.184608,115.802383 100.396935,104.695183 100.722984,93.225143 
z"/>
<path fill="#96CB53" opacity="1.000000" stroke="none" 
	d="
M100.967964,139.290878 
	C101.933258,138.137436 102.690384,137.262665 103.555862,136.512970 
	C106.309906,134.127350 108.756325,131.646988 107.301941,127.008675 
	C107.977455,127.702423 108.542984,128.913666 109.108505,130.124908 
	C109.053680,133.567261 108.664803,137.045395 109.028511,140.442932 
	C109.484039,144.698135 107.724388,146.249588 103.788857,145.787643 
	C99.706657,145.308517 99.804375,142.649414 100.967964,139.290878 
z"/>
<path fill="#B6D292" opacity="1.000000" stroke="none" 
	d="
M109.331062,129.770386 
	C108.542984,128.913666 107.977455,127.702423 107.178909,126.719421 
	C105.888123,126.648796 104.830360,126.349922 103.587540,125.730408 
	C103.657997,124.505974 104.194946,123.573807 104.107361,122.704582 
	C103.950500,121.147858 103.417679,119.629013 103.260452,117.969376 
	C103.650452,117.562500 103.821999,117.280586 104.247253,116.981323 
	C104.669876,116.949852 104.838814,116.935722 105.234146,116.844971 
	C105.745323,116.586876 105.925690,116.331596 106.000824,116.001251 
	C106.000000,116.000000 106.002609,116.002495 106.248138,116.011719 
	C106.493660,116.020935 106.984589,116.042473 106.990318,116.409988 
	C106.950203,117.510704 106.904358,118.243919 106.675362,119.184662 
	C106.992554,120.426384 107.492897,121.460564 107.993233,122.494743 
	C108.263977,122.405327 108.534714,122.315903 108.805450,122.226479 
	C108.805450,121.141434 108.805450,120.056389 108.845093,118.521233 
	C108.865105,115.056328 108.845482,112.041534 108.828659,108.759460 
	C108.805702,108.315857 108.779930,108.139526 108.754158,107.963203 
	C108.827873,106.568481 108.901588,105.173759 109.019547,103.361252 
	C109.227074,111.767609 109.390343,120.591743 109.331062,129.770386 
z"/>
<path fill="#A5CF73" opacity="1.000000" stroke="none" 
	d="
M109.273590,100.729721 
	C109.004509,97.607559 108.981567,94.166954 108.988251,90.349487 
	C109.185158,93.452179 109.352440,96.931732 109.273590,100.729721 
z"/>
<path fill="#98CC56" opacity="1.000000" stroke="none" 
	d="
M100.992287,63.446625 
	C101.332329,66.568222 101.566376,70.121422 101.634819,74.153625 
	C101.274910,71.047829 101.080605,67.463020 100.992287,63.446625 
z"/>
<path fill="#161616" opacity="1.000000" stroke="none" 
	d="
M67.002335,66.183281 
	C67.003044,66.859840 67.003746,67.536400 67.003487,68.551231 
	C66.551529,68.913582 66.100540,68.937653 65.319252,68.884811 
	C65.054596,67.571747 65.120247,66.335594 65.614395,65.310753 
	C66.362709,65.742477 66.682518,65.962883 67.002335,66.183281 
z"/>
<path fill="#161616" opacity="1.000000" stroke="none" 
	d="
M85.798439,73.167313 
	C85.253960,72.517433 84.942108,71.783928 84.630249,71.050430 
	C85.239578,71.251335 85.848915,71.452232 86.695816,71.819168 
	C86.632622,72.351372 86.331848,72.717529 85.798439,73.167313 
z"/>
<path fill="#98CC56" opacity="1.000000" stroke="none" 
	d="
M101.016914,54.435219 
	C101.270851,55.831520 101.440941,57.648392 101.360092,59.722778 
	C101.050461,58.272129 100.991760,56.563961 101.016914,54.435219 
z"/>
<path fill="#E5E5E5" opacity="1.000000" stroke="none" 
	d="
M67.375534,66.120529 
	C66.682518,65.962883 66.362709,65.742477 65.910675,65.255936 
	C66.621010,63.265919 67.585236,61.032074 64.530815,61.111698 
	C59.820515,61.234489 55.139320,62.385883 50.427166,62.543152 
	C40.142319,62.886410 35.374016,70.764946 30.008793,77.472687 
	C25.486027,83.127151 24.038942,90.041328 24.131859,97.403458 
	C24.458652,123.296425 50.349854,139.213882 72.065903,131.039551 
	C74.970001,129.946396 77.832550,128.742874 80.714348,127.590485 
	C81.072777,128.042938 81.431198,128.495392 81.789627,128.947845 
	C80.171013,130.273972 78.756264,132.186234 76.900864,132.831573 
	C64.413406,137.174850 52.114380,137.284622 40.331177,130.371689 
	C21.666100,119.421341 18.073811,100.288528 22.239010,85.951385 
	C24.730865,77.374107 29.604279,69.376076 38.180195,64.839256 
	C41.910801,62.865688 45.871552,61.304676 49.495800,59.163624 
	C50.946060,58.306866 51.771378,56.392239 52.992798,54.615074 
	C59.151066,55.203396 65.204018,56.098492 71.235184,57.121964 
	C71.886604,57.232510 72.330482,58.282391 73.008766,58.564888 
	C76.971695,60.215397 79.190086,65.553642 84.633919,64.122856 
	C85.686646,68.084465 85.686646,68.084465 83.038361,68.064423 
	C82.621315,67.374344 82.315941,67.282646 82.010574,67.190941 
	C80.907494,66.860611 79.804420,66.530289 78.321289,66.007736 
	C77.941238,65.815506 77.661835,65.748451 77.661835,65.748451 
	C76.679108,64.875237 75.696381,64.002014 74.057991,62.919392 
	C72.256126,62.690762 71.109917,62.671539 69.963715,62.652317 
	C70.217743,63.129585 70.471779,63.606853 70.725807,64.084122 
	C71.019760,64.978287 71.313713,65.872452 71.631714,66.839798 
	C70.425194,66.596809 69.086960,66.327293 67.375534,66.120529 
z"/>
<path fill="#E3E3E3" opacity="1.000000" stroke="none" 
	d="
M126.017105,72.017319 
	C126.012009,68.031555 125.798523,64.526512 126.063629,61.058048 
	C126.301285,57.948799 127.590759,55.996819 131.505600,56.622517 
	C134.986221,57.178810 138.652908,57.103149 142.177338,56.733295 
	C148.039825,56.118084 153.502792,57.533024 159.125336,58.781315 
	C163.385910,59.727230 166.389114,61.729393 168.665710,65.243027 
	C177.011398,78.123497 172.326065,93.668953 158.213577,99.650375 
	C157.084274,100.129005 155.702942,100.143234 154.437622,100.149582 
	C146.165344,100.191109 137.892746,100.170952 128.860046,100.170952 
	C128.860046,112.243896 128.860046,123.529915 128.860046,134.815948 
	C128.117126,134.820602 127.374199,134.825272 126.631271,134.829941 
	C126.154556,114.066971 125.975967,93.294113 126.017105,72.017319 
M139.531403,59.982174 
	C136.127106,59.982174 132.722794,59.982174 129.754105,59.982174 
	C129.754105,72.687744 129.754105,84.657967 129.754105,97.179512 
	C138.085266,97.179512 146.527512,97.386803 154.948410,97.053886 
	C157.492554,96.953300 160.455902,95.937401 162.403503,94.337830 
	C169.376923,88.610565 170.984619,80.912003 168.960052,72.407066 
	C167.393372,65.825630 162.429047,62.316608 156.323975,61.071587 
	C151.194885,60.025604 145.796463,60.300224 139.531403,59.982174 
z"/>
<path fill="#161616" opacity="1.000000" stroke="none" 
	d="
M71.035828,64.077209 
	C70.471779,63.606853 70.217743,63.129585 69.963715,62.652317 
	C71.109917,62.671539 72.256126,62.690762 73.701355,62.900803 
	C73.115540,63.417843 72.230690,63.744064 71.035828,64.077209 
z"/>
<path fill="#161616" opacity="1.000000" stroke="none" 
	d="
M76.047607,67.048058 
	C75.859543,67.475777 75.671478,67.903496 75.483406,68.331207 
	C75.329697,68.058205 75.175995,67.785194 75.011108,67.256119 
	C74.999931,67.000046 75.004936,66.993607 75.004936,66.993607 
	C75.004936,66.993607 75.489197,66.982262 75.748764,66.994370 
	C76.008331,67.006477 76.047600,67.048058 76.047607,67.048058 
z"/>
<path fill="#161616" opacity="1.000000" stroke="none" 
	d="
M77.326645,65.869919 
	C77.661835,65.748451 77.941238,65.815506 77.963257,65.957474 
	C77.528679,66.396851 77.072083,66.694260 76.331543,67.019859 
	C76.047600,67.048058 76.008331,67.006477 75.990723,66.983505 
	C76.312553,66.637482 76.652008,66.314430 77.326645,65.869919 
z"/>
<path fill="#121212" opacity="1.000000" stroke="none" 
	d="
M73.549591,51.467941 
	C73.582283,51.522900 73.516899,51.412979 73.549591,51.467941 
z"/>
<path fill="#161616" opacity="1.000000" stroke="none" 
	d="
M82.107559,67.362915 
	C82.315941,67.282646 82.621315,67.374344 82.882782,67.728790 
	C82.583916,67.899773 82.372475,67.747566 82.107559,67.362915 
z"/>
<path fill="#161616" opacity="1.000000" stroke="none" 
	d="
M74.996490,67.002716 
	C74.872597,66.861328 74.752144,66.717262 74.631699,66.573196 
	C74.718536,66.621590 74.805367,66.669983 74.948570,66.855988 
	C75.004936,66.993607 74.999931,67.000046 74.996490,67.002716 
z"/>
<path fill="#121212" opacity="1.000000" stroke="none" 
	d="
M72.531921,53.549553 
	C72.476959,53.582233 72.586891,53.516872 72.531921,53.549553 
z"/>
<path fill="#9DD05D" opacity="1.000000" stroke="none" 
	d="
M108.336243,107.974594 
	C108.779930,108.139526 108.805702,108.315857 108.436401,108.749832 
	C105.739670,109.350105 103.438004,109.692719 101.136337,110.035339 
	C101.115189,109.575714 101.094040,109.116081 101.094864,108.311295 
	C103.384003,107.972748 105.651169,107.979362 108.336243,107.974594 
z"/>
<path fill="#A5CF73" opacity="1.000000" stroke="none" 
	d="
M104.537094,91.065338 
	C105.417656,91.263565 105.983925,91.503662 106.550201,91.743752 
	C106.149391,92.121262 105.748581,92.498779 105.347771,92.876289 
	C104.972778,92.286598 104.597794,91.696907 104.537094,91.065338 
z"/>
<path fill="#A5CF73" opacity="1.000000" stroke="none" 
	d="
M104.404785,97.334579 
	C104.904099,96.705246 105.308281,96.351280 105.712463,95.997314 
	C105.655167,96.765305 105.597862,97.533302 105.540558,98.301300 
	C105.130257,98.070847 104.719955,97.840393 104.404785,97.334579 
z"/>
<path fill="#A5CF73" opacity="1.000000" stroke="none" 
	d="
M103.470352,94.440559 
	C103.535004,94.400246 103.405693,94.480873 103.470352,94.440559 
z"/>
<path fill="#98CC56" opacity="1.000000" stroke="none" 
	d="
M101.103806,110.498413 
	C103.438004,109.692719 105.739670,109.350105 108.433594,109.017120 
	C108.845482,112.041534 108.865105,115.056328 108.522873,118.531052 
	C107.726845,118.986359 107.292679,118.981743 106.858505,118.977127 
	C106.904358,118.243919 106.950203,117.510704 106.912384,116.234230 
	C106.553352,115.794807 106.277977,115.898651 106.002609,116.002487 
	C106.002609,116.002495 106.000000,116.000000 105.787651,116.097870 
	C105.308090,116.376678 105.118912,116.618637 105.007759,116.921593 
	C104.838814,116.935722 104.669876,116.949852 104.023819,117.099869 
	C103.378464,117.521957 103.210228,117.808144 103.041992,118.094330 
	C103.417679,119.629013 103.950500,121.147858 104.107361,122.704582 
	C104.194946,123.573807 103.657997,124.505974 103.254791,125.694031 
	C102.419327,125.366493 101.159935,124.776329 101.135849,124.139450 
	C100.969978,119.752251 101.062111,115.355309 101.103806,110.498413 
M103.688171,114.094254 
	C103.806335,114.073807 103.924500,114.053360 104.310928,113.899933 
	C104.197159,113.920296 104.083389,113.940659 103.688171,114.094254 
M105.657806,111.080475 
	C105.410316,111.302635 105.162834,111.524803 104.915337,111.746956 
	C105.433533,111.919083 105.951736,112.091209 106.469933,112.263336 
	C106.365753,111.908028 106.261574,111.552727 105.657806,111.080475 
z"/>
<path fill="#9DD05D" opacity="1.000000" stroke="none" 
	d="
M106.675369,119.184669 
	C107.292679,118.981743 107.726845,118.986359 108.483231,118.981155 
	C108.805450,120.056389 108.805450,121.141434 108.805450,122.226479 
	C108.534714,122.315903 108.263977,122.405327 107.993233,122.494743 
	C107.492897,121.460564 106.992554,120.426384 106.675369,119.184669 
z"/>
<path fill="#9DD05D" opacity="1.000000" stroke="none" 
	d="
M103.260452,117.969368 
	C103.210228,117.808144 103.378464,117.521957 103.770126,117.117218 
	C103.821999,117.280586 103.650452,117.562500 103.260452,117.969368 
z"/>
<path fill="#9DD05D" opacity="1.000000" stroke="none" 
	d="
M105.234146,116.844971 
	C105.118912,116.618637 105.308090,116.376678 105.788475,116.099113 
	C105.925690,116.331596 105.745323,116.586876 105.234146,116.844971 
z"/>
<path fill="#9DD05D" opacity="1.000000" stroke="none" 
	d="
M106.248138,116.011711 
	C106.277977,115.898651 106.553352,115.794807 106.906662,115.866714 
	C106.984589,116.042473 106.493660,116.020935 106.248138,116.011711 
z"/>
<path fill="#0D0D0D" opacity="1.000000" stroke="none" 
	d="
M140.024353,59.986183 
	C145.796463,60.300224 151.194885,60.025604 156.323975,61.071587 
	C162.429047,62.316608 167.393372,65.825630 168.960052,72.407066 
	C170.984619,80.912003 169.376923,88.610565 162.403503,94.337830 
	C160.455902,95.937401 157.492554,96.953300 154.948410,97.053886 
	C146.527512,97.386803 138.085266,97.179512 129.754105,97.179512 
	C129.754105,84.657967 129.754105,72.687744 129.754105,59.982174 
	C132.722794,59.982174 136.127106,59.982174 140.024353,59.986183 
M152.838730,88.813866 
	C158.373642,86.976250 161.218674,82.646965 160.663513,76.906860 
	C160.244354,72.572868 156.790421,69.484123 151.389389,68.913651 
	C148.597214,68.618729 145.765396,68.661240 142.950577,68.628387 
	C139.283966,68.585587 137.678818,70.428024 137.607849,74.115601 
	C137.324829,88.821198 137.276443,88.820267 152.838730,88.813866 
z"/>
<path fill="#9DD05D" opacity="1.000000" stroke="none" 
	d="
M105.907600,111.138947 
	C106.261574,111.552727 106.365753,111.908028 106.469933,112.263336 
	C105.951736,112.091209 105.433533,111.919083 104.915344,111.746964 
	C105.162834,111.524803 105.410316,111.302635 105.907600,111.138947 
z"/>
<path fill="#9DD05D" opacity="1.000000" stroke="none" 
	d="
M104.042664,114.032913 
	C103.924500,114.053360 103.806335,114.073807 103.845734,114.047058 
	C104.003288,113.999863 104.042664,114.032913 104.042664,114.032913 
z"/>
<path fill="#9DD05D" opacity="1.000000" stroke="none" 
	d="
M103.986450,113.980438 
	C104.083389,113.940659 104.197159,113.920296 104.176796,113.966423 
	C104.042664,114.032913 104.003288,113.999863 103.986450,113.980438 
z"/>
<path fill="#F9F9F9" opacity="1.000000" stroke="none" 
	d="
M152.402466,88.814117 
	C137.276443,88.820267 137.324829,88.821198 137.607849,74.115601 
	C137.678818,70.428024 139.283966,68.585587 142.950577,68.628387 
	C145.765396,68.661240 148.597214,68.618729 151.389389,68.913651 
	C156.790421,69.484123 160.244354,72.572868 160.663513,76.906860 
	C161.218674,82.646965 158.373642,86.976250 152.402466,88.814117 
z"/>
</svg>